<?xml version="1.0" encoding="utf-8"?>
<!-- Generator: Adobe Illustrator 17.0.0, SVG Export Plug-In . SVG Version: 6.00 Build 0)  -->
<!DOCTYPE svg PUBLIC "-//W3C//DTD SVG 1.1//EN" "http://www.w3.org/Graphics/SVG/1.1/DTD/svg11.dtd">
<svg version="1.1" id="Layer_1" xmlns="http://www.w3.org/2000/svg" xmlns:xlink="http://www.w3.org/1999/xlink" x="0px" y="0px"
	 width="40px" height="40px" viewBox="0 0 40 40" enable-background="new 0 0 40 40" xml:space="preserve">
<g>
	<g>
		<g>
			<path fill-rule="evenodd" clip-rule="evenodd" fill="#2D4E9D" d="M35.863,7.244l-6.534-6.627l0,0
				c0-0.001-0.001-0.001-0.001-0.001c-0.017-0.017-0.034-0.031-0.052-0.043c-0.006-0.004-0.012-0.008-0.018-0.012
				c-0.014-0.009-0.028-0.017-0.043-0.023c-0.007-0.003-0.014-0.007-0.021-0.009c-0.019-0.007-0.038-0.013-0.057-0.018
				c-0.003-0.001-0.006-0.002-0.009-0.003c-0.023-0.005-0.046-0.007-0.07-0.007c-0.003,0-0.005-0.001-0.008-0.001H7.68
				c-0.218,0-0.395,0.179-0.395,0.4V20.43h-2.89C4.177,20.43,4,20.609,4,20.83v9.966c0,0.221,0.177,0.399,0.395,0.399h2.89V39.1
				c0,0.221,0.177,0.4,0.395,0.4h27.923c0.218,0,0.395-0.179,0.395-0.4V7.563c0-0.005,0.002-0.01,0.002-0.016
				C36,7.426,35.947,7.318,35.863,7.244z M29.444,1.867l5.206,5.281h-5.206V1.867z M4.791,30.396v-9.167h16.456v9.167H4.791z
				 M35.208,38.701H8.076v-7.505h13.566c0.218,0,0.395-0.179,0.395-0.4V20.83c0-0.221-0.177-0.4-0.395-0.4H8.076V1.299h20.578v6.248
				c0,0.221,0.177,0.4,0.395,0.4h6.159V38.701z M11,13.5h21v-1H11V13.5z M11,18.5h21v-1H11V18.5z M24,23.5h8v-1h-8V23.5z M24,28.5h8
				v-1h-8V28.5z"/>
		</g>
	</g>
	<path fill="#2D4E9D" d="M7.603,28.54H5.995v-5.261h1.543c0.37,0,0.645,0.032,0.84,0.1c0.26,0.086,0.489,0.246,0.678,0.477
		c0.184,0.222,0.33,0.506,0.433,0.844c0.101,0.332,0.152,0.729,0.152,1.183c0,0.582-0.087,1.084-0.259,1.493
		c-0.176,0.418-0.408,0.72-0.689,0.897C8.413,28.45,8.046,28.54,7.603,28.54z M6.797,27.723h0.75c0.329,0,0.577-0.052,0.736-0.152
		c0.158-0.1,0.283-0.267,0.371-0.495C8.777,26.752,8.84,26.356,8.84,25.9c0-0.488-0.065-0.873-0.195-1.145
		c-0.124-0.263-0.282-0.438-0.47-0.522c-0.129-0.06-0.345-0.089-0.643-0.089H6.797V27.723z"/>
	<path fill="#2D4E9D" d="M14.65,24.466c-0.184-0.41-0.437-0.729-0.753-0.945c-0.318-0.219-0.675-0.33-1.062-0.33
		c-0.597,0-1.103,0.247-1.501,0.734c-0.393,0.479-0.592,1.169-0.592,2.05c0,0.7,0.177,1.308,0.525,1.805
		c0.393,0.562,0.919,0.847,1.565,0.847c0.641,0,1.166-0.277,1.561-0.825c0.352-0.486,0.53-1.121,0.53-1.888
		C14.922,25.359,14.83,24.872,14.65,24.466z M13.733,27.34c-0.248,0.314-0.544,0.468-0.905,0.468c-0.353,0-0.646-0.151-0.895-0.464
		c-0.253-0.316-0.381-0.774-0.381-1.36c0-0.684,0.125-1.192,0.372-1.511c0.243-0.313,0.542-0.465,0.915-0.465
		c0.23,0,0.437,0.069,0.632,0.211c0.196,0.142,0.344,0.334,0.441,0.57c0.132,0.322,0.199,0.695,0.199,1.108
		C14.111,26.534,13.984,27.019,13.733,27.34z"/>
	<path fill="#2D4E9D" d="M18.117,28.626c-0.403,0-0.755-0.102-1.047-0.301c-0.289-0.199-0.527-0.519-0.708-0.95
		c-0.178-0.423-0.268-0.929-0.268-1.501c0-0.567,0.091-1.056,0.27-1.452c0.181-0.401,0.432-0.711,0.744-0.919
		c0.314-0.207,0.669-0.313,1.055-0.313c0.426,0,0.798,0.135,1.105,0.4c0.303,0.262,0.518,0.649,0.638,1.151l0.028,0.116
		l-0.771,0.222l-0.033-0.123c-0.167-0.639-0.487-0.949-0.978-0.949c-0.246,0-0.461,0.063-0.641,0.188
		c-0.18,0.126-0.327,0.328-0.437,0.6c-0.113,0.281-0.17,0.644-0.17,1.079c0,0.657,0.114,1.152,0.339,1.472
		c0.219,0.311,0.5,0.462,0.862,0.462c0.265,0,0.488-0.092,0.68-0.28c0.195-0.191,0.329-0.491,0.396-0.89l0.023-0.141L20,26.74
		l-0.024,0.112c-0.125,0.587-0.352,1.032-0.672,1.325C18.979,28.475,18.581,28.626,18.117,28.626z"/>
</g>
</svg>
