<?xml version="1.0" encoding="utf-8"?>
<!-- Generator: Adobe Illustrator 17.0.0, SVG Export Plug-In . SVG Version: 6.00 Build 0)  -->
<!DOCTYPE svg PUBLIC "-//W3C//DTD SVG 1.1//EN" "http://www.w3.org/Graphics/SVG/1.1/DTD/svg11.dtd">
<svg version="1.1" id="Layer_1" xmlns="http://www.w3.org/2000/svg" xmlns:xlink="http://www.w3.org/1999/xlink" x="0px" y="0px"
	 width="40px" height="40px" viewBox="0 0 40 40" enable-background="new 0 0 40 40" xml:space="preserve">
<g>
	<g>
		<g>
			<path fill-rule="evenodd" clip-rule="evenodd" fill="#E91B39" d="M35.613,7.244l-6.534-6.627c0,0,0,0,0,0
				c-0.001-0.001-0.001-0.001-0.001-0.001c-0.017-0.016-0.034-0.03-0.052-0.043c-0.006-0.004-0.012-0.008-0.018-0.011
				c-0.014-0.009-0.028-0.017-0.043-0.023c-0.007-0.003-0.014-0.007-0.021-0.009c-0.019-0.007-0.038-0.013-0.057-0.018
				c-0.003-0.001-0.006-0.002-0.009-0.003c-0.023-0.005-0.047-0.007-0.07-0.007c-0.003,0-0.005-0.001-0.008-0.001H7.43
				c-0.218,0-0.395,0.179-0.395,0.4V20.43h-2.89c-0.218,0-0.395,0.179-0.395,0.4v9.966c0,0.221,0.177,0.399,0.395,0.399h2.89V39.1
				c0,0.221,0.177,0.4,0.395,0.4h27.923c0.218,0,0.395-0.179,0.395-0.4V7.563c0-0.005,0.002-0.01,0.002-0.016
				C35.75,7.426,35.697,7.318,35.613,7.244z M29.194,1.867l5.206,5.281h-5.206V1.867z M4.54,30.396V21.23h16.456v9.167H4.54z
				 M34.958,38.701H7.826v-7.505h13.566c0.218,0,0.395-0.179,0.395-0.4V20.83c0-0.221-0.177-0.4-0.395-0.4H7.826V1.299h20.578v6.248
				c0,0.221,0.177,0.4,0.395,0.4h6.159V38.701z M10.75,13.5h21v-1h-21V13.5z M10.75,18.5h21v-1h-21V18.5z M23.75,23.5h8v-1h-8V23.5z
				 M23.75,28.5h8v-1h-8V28.5z"/>
		</g>
	</g>
	<path fill="#E91B39" d="M12.723,28.54h-1.608v-5.261h1.543c0.37,0,0.645,0.032,0.84,0.1c0.26,0.086,0.489,0.246,0.678,0.477
		c0.184,0.222,0.33,0.506,0.433,0.844c0.101,0.332,0.152,0.729,0.152,1.183c0,0.582-0.087,1.084-0.259,1.493
		c-0.176,0.418-0.408,0.72-0.689,0.897C13.533,28.45,13.166,28.54,12.723,28.54z M11.917,27.723h0.75
		c0.329,0,0.577-0.052,0.736-0.152c0.158-0.1,0.283-0.267,0.371-0.495c0.124-0.323,0.187-0.719,0.187-1.175
		c0-0.488-0.065-0.873-0.195-1.145c-0.124-0.263-0.282-0.438-0.47-0.522c-0.129-0.06-0.345-0.089-0.643-0.089h-0.736V27.723z"/>
	<g>
		<path fill="#E91B39" d="M7.221,28.54H6.428v-5.261h1.673c0.383,0,0.66,0.034,0.85,0.104c0.263,0.096,0.476,0.275,0.632,0.534
			c0.152,0.254,0.229,0.566,0.229,0.93c0,0.479-0.125,0.876-0.372,1.182c-0.255,0.315-0.688,0.475-1.291,0.475H7.221V28.54z
			 M7.221,25.661h0.938c0.3,0,0.518-0.064,0.648-0.191c0.129-0.126,0.194-0.326,0.194-0.596c0-0.177-0.033-0.328-0.1-0.45
			c-0.063-0.116-0.138-0.196-0.222-0.237c-0.063-0.03-0.205-0.066-0.531-0.066H7.221V25.661z"/>
	</g>
	<polygon fill="#E91B39" points="17.036,28.539 16.243,28.539 16.243,23.279 19.265,23.279 19.265,24.119 17.036,24.119 
		17.036,25.422 18.964,25.422 18.964,26.263 17.036,26.263 	"/>
</g>
</svg>
