<?xml version="1.0" encoding="utf-8"?>
<!-- Generator: Adobe Illustrator 18.1.1, SVG Export Plug-In . SVG Version: 6.00 Build 0)  -->
<svg version="1.1" id="Layer_1" xmlns="http://www.w3.org/2000/svg" xmlns:xlink="http://www.w3.org/1999/xlink" x="0px" y="0px"
	 viewBox="-9 26 40 40" enable-background="new -9 26 40 40" xml:space="preserve">
<g>
	<g>
		<g>
			<path fill="#DB5801" d="M26.9,33.2l-6.5-6.6l0,0c0,0,0,0,0,0c0,0,0,0-0.1,0c0,0,0,0,0,0c0,0,0,0,0,0c0,0,0,0,0,0c0,0,0,0-0.1,0
				c0,0,0,0,0,0c0,0,0,0-0.1,0c0,0,0,0,0,0H-1.3c-0.2,0-0.4,0.2-0.4,0.4v19.5h-2.9c-0.2,0-0.4,0.2-0.4,0.4v10c0,0.2,0.2,0.4,0.4,0.4
				h2.9v7.9c0,0.2,0.2,0.4,0.4,0.4h27.9c0.2,0,0.4-0.2,0.4-0.4V33.6c0,0,0,0,0,0C27,33.4,26.9,33.3,26.9,33.2z M20.4,27.9l5.2,5.3
				h-5.2C20.4,33.1,20.4,27.9,20.4,27.9z M-4.2,56.4v-9.2h16.5v9.2L-4.2,56.4L-4.2,56.4z M26.2,64.7H-0.9v-7.5h13.6
				c0.2,0,0.4-0.2,0.4-0.4v-10c0-0.2-0.2-0.4-0.4-0.4H-0.9V27.3h20.6v6.2c0,0.2,0.2,0.4,0.4,0.4h6.2V64.7z M2,39.5h21v-1H2V39.5z
				 M2,44.5h21v-1H2V44.5z M15,49.5h8v-1h-8V49.5z M15,54.5h8v-1h-8V54.5z"/>
		</g>
	</g>
	<path fill="#DB5801" d="M-1.4,54.5h-0.8v-5.3h1.7c0.4,0,0.7,0,0.9,0.1c0.3,0.1,0.5,0.3,0.6,0.5c0.2,0.3,0.2,0.6,0.2,0.9
		c0,0.5-0.1,0.9-0.4,1.2c-0.3,0.3-0.7,0.5-1.3,0.5h-0.9V54.5z M-1.4,51.7h0.9c0.3,0,0.5-0.1,0.6-0.2c0.1-0.1,0.2-0.3,0.2-0.6
		c0-0.2,0-0.3-0.1-0.5c-0.1-0.1-0.1-0.2-0.2-0.2c-0.1,0-0.2-0.1-0.5-0.1h-0.9V51.7z M8.9,54.5H8.1v-4.4H6.7v-0.8h3.5v0.8H8.9V54.5z
		 M3.1,54.5H2.3v-5.3H4c0.4,0,0.7,0,0.9,0.1c0.3,0.1,0.5,0.3,0.6,0.5c0.2,0.3,0.2,0.6,0.2,0.9c0,0.5-0.1,0.9-0.4,1.2
		C5,52.3,4.6,52.5,4,52.5H3.1C3.1,52.5,3.1,54.5,3.1,54.5z M3.1,51.7H4c0.3,0,0.5-0.1,0.6-0.2c0.1-0.1,0.2-0.3,0.2-0.6
		c0-0.2,0-0.3-0.1-0.5c-0.1-0.1-0.1-0.2-0.2-0.2c-0.1,0-0.2-0.1-0.5-0.1H3.1L3.1,51.7L3.1,51.7z"/>
</g>
</svg>
