<?xml version="1.0" encoding="utf-8"?>
<!-- Generator: Adobe Illustrator 18.1.1, SVG Export Plug-In . SVG Version: 6.00 Build 0)  -->
<svg version="1.1" id="Layer_1" xmlns="http://www.w3.org/2000/svg" xmlns:xlink="http://www.w3.org/1999/xlink" x="0px" y="0px"
	 viewBox="-9 26 40 40" enable-background="new -9 26 40 40" xml:space="preserve">
<g>
	<g>
		<g>
			<path fill="#037132" d="M26.9,33.2l-6.5-6.6l0,0c0,0,0,0,0,0c0,0,0,0-0.1,0c0,0,0,0,0,0c0,0,0,0,0,0c0,0,0,0,0,0c0,0,0,0-0.1,0
				c0,0,0,0,0,0c0,0,0,0-0.1,0c0,0,0,0,0,0H-1.3c-0.2,0-0.4,0.2-0.4,0.4v19.5h-2.9c-0.2,0-0.4,0.2-0.4,0.4v10c0,0.2,0.2,0.4,0.4,0.4
				h2.9v7.9c0,0.2,0.2,0.4,0.4,0.4h27.9c0.2,0,0.4-0.2,0.4-0.4V33.6c0,0,0,0,0,0C27,33.4,26.9,33.3,26.9,33.2z M20.4,27.9l5.2,5.3
				h-5.2C20.4,33.1,20.4,27.9,20.4,27.9z M-4.2,56.4v-9.2h16.5v9.2H-4.2z M26.2,64.7H-0.9v-7.5h13.6c0.2,0,0.4-0.2,0.4-0.4v-10
				c0-0.2-0.2-0.4-0.4-0.4H-0.9V27.3h20.6v6.2c0,0.2,0.2,0.4,0.4,0.4h6.2V64.7z M2,39.5h21v-1H2V39.5z M2,44.5h21v-1H2V44.5z
				 M15,49.5h8v-1h-8V49.5z M15,54.5h8v-1h-8V54.5z"/>
		</g>
	</g>
	<path fill="#037132" d="M1.8,54.6h-1l-1.1-1.9c0,0,0-0.1-0.1-0.1c0,0.1-0.1,0.1-0.1,0.2l-1.1,1.8h-0.9l1.7-2.7l-1.5-2.5h0.9
		l0.8,1.3c0.1,0.2,0.2,0.3,0.2,0.4c0.1-0.1,0.1-0.2,0.2-0.4l0.9-1.4h0.9l-1.5,2.5L1.8,54.6z M5.8,54.6H3v-5.3h0.8v4.4h2L5.8,54.6
		L5.8,54.6z M10.2,52.2c-0.1-0.2-0.3-0.4-0.6-0.6c-0.2-0.1-0.5-0.2-0.9-0.3C8.3,51.2,8.1,51.1,8,51c-0.1-0.1-0.1-0.2-0.1-0.4
		c0-0.2,0.1-0.3,0.2-0.4C8.2,50.1,8.4,50,8.7,50c0.3,0,0.5,0.1,0.6,0.2c0.1,0.1,0.2,0.4,0.3,0.6l0,0.1l0.8-0.1l0-0.1
		c0-0.3-0.1-0.6-0.2-0.9c-0.1-0.2-0.3-0.4-0.6-0.6c-0.2-0.1-0.5-0.2-0.9-0.2c-0.5,0-0.9,0.1-1.1,0.4c-0.3,0.3-0.4,0.6-0.4,1.1
		c0,0.2,0.1,0.5,0.1,0.7c0.1,0.2,0.2,0.4,0.4,0.5c0.2,0.1,0.5,0.2,0.9,0.4c0.4,0.1,0.7,0.2,0.8,0.3c0.1,0.1,0.2,0.1,0.2,0.2
		c0.1,0.1,0.1,0.2,0.1,0.3c0,0.2-0.1,0.4-0.2,0.5c-0.2,0.1-0.4,0.2-0.7,0.2c-0.2,0-0.4,0-0.5-0.1c-0.2-0.1-0.3-0.2-0.4-0.3
		c-0.1-0.1-0.1-0.3-0.2-0.6l0-0.1l-0.8,0.1l0,0.1c0,0.6,0.2,1,0.5,1.3c0.3,0.3,0.8,0.5,1.3,0.5c0.3,0,0.6-0.1,0.9-0.2
		c0.3-0.1,0.5-0.3,0.6-0.6c0.1-0.3,0.2-0.5,0.2-0.8C10.5,52.7,10.4,52.4,10.2,52.2z"/>
</g>
</svg>
